# xmcd
# 
# Track frame offsets:
#     150
#     19499
#     33522
#     48064
#     64368
#     78604
#     102608
#     125163
#     141788
#     165282
# 
# Disc length: 2442
# 
# Revision: 0
# Processed by: cddbd v1.5.2PL0 Copyright (c) Steve Scherf et al.
# Submitted via: fre:ac v1.0.27
# 
DISCID=8c09880a
DTITLE=Harper and Motorcity Josh - Bare Bones
DYEAR=2013
DGENRE=Blues
TTITLE0=Pot Hole BBQ
TTITLE1=Bare Bones
TTITLE2=Stop Staring At Your Phone
TTITLE3=Why Can't We All Just Get Along
TTITLE4=Goin' Fishin'
TTITLE5=Blues Is A Feeling
TTITLE6=Hydrogenated Food
TTITLE7=Just Too Big To Fail
TTITLE8=So Lazy
TTITLE9=Don't Change A Thing
EXTD=
EXTT0=
EXTT1=
EXTT2=
EXTT3=
EXTT4=
EXTT5=
EXTT6=
EXTT7=
EXTT8=
EXTT9=
PLAYORDER=
